<mxfile host="app.diagrams.net" modified="2023-03-07T09:28:30.693Z" agent="5.0 (Macintosh; Intel Mac OS X 10_15_7) AppleWebKit/537.36 (KHTML, like Gecko) Chrome/110.0.0.0 Safari/537.36" etag="boxQMOCT9JKFvwHIoJCp" version="21.0.2" type="github">
  <diagram id="C5RBs43oDa-KdzZeNtuy" name="Page-1">
    <mxGraphModel dx="1265" dy="673" grid="1" gridSize="8" guides="1" tooltips="1" connect="1" arrows="1" fold="1" page="1" pageScale="1" pageWidth="583" pageHeight="827" math="0" shadow="0">
      <root>
        <mxCell id="WIyWlLk6GJQsqaUBKTNV-0" />
        <mxCell id="WIyWlLk6GJQsqaUBKTNV-1" parent="WIyWlLk6GJQsqaUBKTNV-0" />
        <mxCell id="flgQ8N4auqFFRh5ke0pL-4" style="edgeStyle=orthogonalEdgeStyle;rounded=0;orthogonalLoop=1;jettySize=auto;html=1;exitX=0.5;exitY=1;exitDx=0;exitDy=0;entryX=0.5;entryY=0;entryDx=0;entryDy=0;fontSize=12;" edge="1" parent="WIyWlLk6GJQsqaUBKTNV-1" source="flgQ8N4auqFFRh5ke0pL-2" target="flgQ8N4auqFFRh5ke0pL-3">
          <mxGeometry relative="1" as="geometry" />
        </mxCell>
        <mxCell id="flgQ8N4auqFFRh5ke0pL-2" value="start" style="ellipse;whiteSpace=wrap;html=1;fontSize=12;" vertex="1" parent="WIyWlLk6GJQsqaUBKTNV-1">
          <mxGeometry x="225" y="30" width="120" height="60" as="geometry" />
        </mxCell>
        <mxCell id="flgQ8N4auqFFRh5ke0pL-6" style="edgeStyle=orthogonalEdgeStyle;rounded=0;orthogonalLoop=1;jettySize=auto;html=1;fontSize=12;" edge="1" parent="WIyWlLk6GJQsqaUBKTNV-1" source="flgQ8N4auqFFRh5ke0pL-3" target="flgQ8N4auqFFRh5ke0pL-5">
          <mxGeometry relative="1" as="geometry" />
        </mxCell>
        <mxCell id="flgQ8N4auqFFRh5ke0pL-3" value="监测链路状况变化" style="rounded=0;whiteSpace=wrap;html=1;fontSize=12;" vertex="1" parent="WIyWlLk6GJQsqaUBKTNV-1">
          <mxGeometry x="225" y="140" width="120" height="60" as="geometry" />
        </mxCell>
        <mxCell id="flgQ8N4auqFFRh5ke0pL-9" style="edgeStyle=orthogonalEdgeStyle;rounded=0;orthogonalLoop=1;jettySize=auto;html=1;exitX=1;exitY=0.5;exitDx=0;exitDy=0;fontSize=12;" edge="1" parent="WIyWlLk6GJQsqaUBKTNV-1" source="flgQ8N4auqFFRh5ke0pL-5" target="flgQ8N4auqFFRh5ke0pL-8">
          <mxGeometry relative="1" as="geometry" />
        </mxCell>
        <mxCell id="flgQ8N4auqFFRh5ke0pL-10" style="edgeStyle=orthogonalEdgeStyle;rounded=0;orthogonalLoop=1;jettySize=auto;html=1;exitX=0;exitY=0.5;exitDx=0;exitDy=0;entryX=0.5;entryY=0;entryDx=0;entryDy=0;fontSize=12;" edge="1" parent="WIyWlLk6GJQsqaUBKTNV-1" source="flgQ8N4auqFFRh5ke0pL-5" target="flgQ8N4auqFFRh5ke0pL-7">
          <mxGeometry relative="1" as="geometry" />
        </mxCell>
        <mxCell id="flgQ8N4auqFFRh5ke0pL-5" value="" style="rhombus;whiteSpace=wrap;html=1;fontSize=12;" vertex="1" parent="WIyWlLk6GJQsqaUBKTNV-1">
          <mxGeometry x="245" y="230" width="80" height="80" as="geometry" />
        </mxCell>
        <mxCell id="flgQ8N4auqFFRh5ke0pL-15" style="edgeStyle=orthogonalEdgeStyle;rounded=0;orthogonalLoop=1;jettySize=auto;html=1;exitX=0.5;exitY=1;exitDx=0;exitDy=0;entryX=0.5;entryY=0;entryDx=0;entryDy=0;fontSize=12;" edge="1" parent="WIyWlLk6GJQsqaUBKTNV-1" source="flgQ8N4auqFFRh5ke0pL-7" target="flgQ8N4auqFFRh5ke0pL-14">
          <mxGeometry relative="1" as="geometry" />
        </mxCell>
        <mxCell id="flgQ8N4auqFFRh5ke0pL-7" value="存储Link Down事件" style="rounded=0;whiteSpace=wrap;html=1;fontSize=12;" vertex="1" parent="WIyWlLk6GJQsqaUBKTNV-1">
          <mxGeometry x="105" y="350" width="120" height="60" as="geometry" />
        </mxCell>
        <mxCell id="flgQ8N4auqFFRh5ke0pL-16" style="edgeStyle=orthogonalEdgeStyle;rounded=0;orthogonalLoop=1;jettySize=auto;html=1;exitX=0.5;exitY=1;exitDx=0;exitDy=0;entryX=0.5;entryY=0;entryDx=0;entryDy=0;fontSize=12;" edge="1" parent="WIyWlLk6GJQsqaUBKTNV-1" source="flgQ8N4auqFFRh5ke0pL-8" target="flgQ8N4auqFFRh5ke0pL-14">
          <mxGeometry relative="1" as="geometry" />
        </mxCell>
        <mxCell id="flgQ8N4auqFFRh5ke0pL-8" value="读取Link Down缓存，更新Link Flapping次数" style="rounded=0;whiteSpace=wrap;html=1;fontSize=12;" vertex="1" parent="WIyWlLk6GJQsqaUBKTNV-1">
          <mxGeometry x="355" y="350" width="120" height="60" as="geometry" />
        </mxCell>
        <mxCell id="flgQ8N4auqFFRh5ke0pL-11" value="Link Down" style="text;strokeColor=none;align=center;fillColor=none;html=1;verticalAlign=middle;whiteSpace=wrap;rounded=0;fontSize=12;" vertex="1" parent="WIyWlLk6GJQsqaUBKTNV-1">
          <mxGeometry x="165" y="240" width="60" height="30" as="geometry" />
        </mxCell>
        <mxCell id="flgQ8N4auqFFRh5ke0pL-12" value="Link Up" style="text;strokeColor=none;align=center;fillColor=none;html=1;verticalAlign=middle;whiteSpace=wrap;rounded=0;fontSize=12;" vertex="1" parent="WIyWlLk6GJQsqaUBKTNV-1">
          <mxGeometry x="355" y="240" width="60" height="30" as="geometry" />
        </mxCell>
        <mxCell id="flgQ8N4auqFFRh5ke0pL-18" style="edgeStyle=orthogonalEdgeStyle;rounded=0;orthogonalLoop=1;jettySize=auto;html=1;entryX=0.5;entryY=0;entryDx=0;entryDy=0;fontSize=12;" edge="1" parent="WIyWlLk6GJQsqaUBKTNV-1" source="flgQ8N4auqFFRh5ke0pL-14" target="flgQ8N4auqFFRh5ke0pL-17">
          <mxGeometry relative="1" as="geometry" />
        </mxCell>
        <mxCell id="flgQ8N4auqFFRh5ke0pL-14" value="5小时内震荡超过四次" style="rounded=0;whiteSpace=wrap;html=1;fontSize=12;" vertex="1" parent="WIyWlLk6GJQsqaUBKTNV-1">
          <mxGeometry x="225" y="470" width="120" height="60" as="geometry" />
        </mxCell>
        <mxCell id="flgQ8N4auqFFRh5ke0pL-20" value="" style="edgeStyle=orthogonalEdgeStyle;rounded=0;orthogonalLoop=1;jettySize=auto;html=1;fontSize=12;" edge="1" parent="WIyWlLk6GJQsqaUBKTNV-1" source="flgQ8N4auqFFRh5ke0pL-17" target="flgQ8N4auqFFRh5ke0pL-19">
          <mxGeometry relative="1" as="geometry" />
        </mxCell>
        <mxCell id="flgQ8N4auqFFRh5ke0pL-17" value="将链路标记为FLAPPING_IN_5_HOURS" style="rounded=0;whiteSpace=wrap;html=1;fontSize=12;" vertex="1" parent="WIyWlLk6GJQsqaUBKTNV-1">
          <mxGeometry x="195" y="570" width="180" height="60" as="geometry" />
        </mxCell>
        <mxCell id="flgQ8N4auqFFRh5ke0pL-22" value="" style="edgeStyle=orthogonalEdgeStyle;rounded=0;orthogonalLoop=1;jettySize=auto;html=1;fontSize=12;" edge="1" parent="WIyWlLk6GJQsqaUBKTNV-1" source="flgQ8N4auqFFRh5ke0pL-19" target="flgQ8N4auqFFRh5ke0pL-21">
          <mxGeometry relative="1" as="geometry" />
        </mxCell>
        <mxCell id="flgQ8N4auqFFRh5ke0pL-19" value="链路两端接口Metric值设置为init+50000" style="whiteSpace=wrap;html=1;rounded=0;fontSize=12;" vertex="1" parent="WIyWlLk6GJQsqaUBKTNV-1">
          <mxGeometry x="225" y="660" width="120" height="60" as="geometry" />
        </mxCell>
        <mxCell id="flgQ8N4auqFFRh5ke0pL-24" value="" style="edgeStyle=orthogonalEdgeStyle;rounded=0;orthogonalLoop=1;jettySize=auto;html=1;fontSize=12;" edge="1" parent="WIyWlLk6GJQsqaUBKTNV-1" source="flgQ8N4auqFFRh5ke0pL-21" target="flgQ8N4auqFFRh5ke0pL-23">
          <mxGeometry relative="1" as="geometry" />
        </mxCell>
        <mxCell id="flgQ8N4auqFFRh5ke0pL-28" style="edgeStyle=orthogonalEdgeStyle;rounded=0;orthogonalLoop=1;jettySize=auto;html=1;exitX=1;exitY=0.5;exitDx=0;exitDy=0;fontSize=12;" edge="1" parent="WIyWlLk6GJQsqaUBKTNV-1" source="flgQ8N4auqFFRh5ke0pL-21" target="flgQ8N4auqFFRh5ke0pL-26">
          <mxGeometry relative="1" as="geometry" />
        </mxCell>
        <mxCell id="flgQ8N4auqFFRh5ke0pL-21" value="&lt;font style=&quot;font-size: 12px;&quot;&gt;10分钟超出10次&lt;/font&gt;" style="rhombus;whiteSpace=wrap;html=1;rounded=0;fontSize=12;" vertex="1" parent="WIyWlLk6GJQsqaUBKTNV-1">
          <mxGeometry x="230" y="760" width="110" height="80" as="geometry" />
        </mxCell>
        <mxCell id="flgQ8N4auqFFRh5ke0pL-30" style="edgeStyle=orthogonalEdgeStyle;rounded=0;orthogonalLoop=1;jettySize=auto;html=1;exitX=0.5;exitY=1;exitDx=0;exitDy=0;fontSize=12;" edge="1" parent="WIyWlLk6GJQsqaUBKTNV-1" source="flgQ8N4auqFFRh5ke0pL-23" target="flgQ8N4auqFFRh5ke0pL-26">
          <mxGeometry relative="1" as="geometry" />
        </mxCell>
        <mxCell id="flgQ8N4auqFFRh5ke0pL-23" value="将链路标记为FLAPPING_IN_10_MINUTES&lt;br style=&quot;font-size: 12px;&quot;&gt;两端Metric值设置为Max" style="whiteSpace=wrap;html=1;rounded=0;fontSize=12;" vertex="1" parent="WIyWlLk6GJQsqaUBKTNV-1">
          <mxGeometry x="45" y="870" width="180" height="60" as="geometry" />
        </mxCell>
        <mxCell id="flgQ8N4auqFFRh5ke0pL-25" value="是" style="text;strokeColor=none;align=center;fillColor=none;html=1;verticalAlign=middle;whiteSpace=wrap;rounded=0;fontSize=12;" vertex="1" parent="WIyWlLk6GJQsqaUBKTNV-1">
          <mxGeometry x="175" y="760" width="60" height="30" as="geometry" />
        </mxCell>
        <mxCell id="flgQ8N4auqFFRh5ke0pL-34" style="edgeStyle=orthogonalEdgeStyle;rounded=0;orthogonalLoop=1;jettySize=auto;html=1;exitX=0.5;exitY=1;exitDx=0;exitDy=0;entryX=0.5;entryY=0;entryDx=0;entryDy=0;fontSize=12;" edge="1" parent="WIyWlLk6GJQsqaUBKTNV-1" source="flgQ8N4auqFFRh5ke0pL-26" target="flgQ8N4auqFFRh5ke0pL-33">
          <mxGeometry relative="1" as="geometry" />
        </mxCell>
        <mxCell id="flgQ8N4auqFFRh5ke0pL-26" value="记录最后一次时间，震荡三小时内监测链路状况" style="rounded=0;whiteSpace=wrap;html=1;fontSize=12;" vertex="1" parent="WIyWlLk6GJQsqaUBKTNV-1">
          <mxGeometry x="365" y="920" width="120" height="60" as="geometry" />
        </mxCell>
        <mxCell id="flgQ8N4auqFFRh5ke0pL-29" value="否" style="text;strokeColor=none;align=center;fillColor=none;html=1;verticalAlign=middle;whiteSpace=wrap;rounded=0;fontSize=12;" vertex="1" parent="WIyWlLk6GJQsqaUBKTNV-1">
          <mxGeometry x="365" y="760" width="60" height="30" as="geometry" />
        </mxCell>
        <mxCell id="flgQ8N4auqFFRh5ke0pL-37" style="edgeStyle=orthogonalEdgeStyle;rounded=0;orthogonalLoop=1;jettySize=auto;html=1;exitX=1;exitY=0.5;exitDx=0;exitDy=0;entryX=0.5;entryY=0;entryDx=0;entryDy=0;fontSize=12;" edge="1" parent="WIyWlLk6GJQsqaUBKTNV-1" source="flgQ8N4auqFFRh5ke0pL-33" target="flgQ8N4auqFFRh5ke0pL-36">
          <mxGeometry relative="1" as="geometry" />
        </mxCell>
        <mxCell id="flgQ8N4auqFFRh5ke0pL-39" style="edgeStyle=orthogonalEdgeStyle;rounded=0;orthogonalLoop=1;jettySize=auto;html=1;exitX=0;exitY=0.5;exitDx=0;exitDy=0;entryX=0.5;entryY=0;entryDx=0;entryDy=0;fontSize=12;" edge="1" parent="WIyWlLk6GJQsqaUBKTNV-1" source="flgQ8N4auqFFRh5ke0pL-33" target="flgQ8N4auqFFRh5ke0pL-35">
          <mxGeometry relative="1" as="geometry" />
        </mxCell>
        <mxCell id="flgQ8N4auqFFRh5ke0pL-33" value="3小时内是否中断" style="rhombus;whiteSpace=wrap;html=1;fontSize=12;" vertex="1" parent="WIyWlLk6GJQsqaUBKTNV-1">
          <mxGeometry x="245" y="1020" width="80" height="80" as="geometry" />
        </mxCell>
        <mxCell id="flgQ8N4auqFFRh5ke0pL-40" style="edgeStyle=orthogonalEdgeStyle;rounded=0;orthogonalLoop=1;jettySize=auto;html=1;exitX=1;exitY=0.5;exitDx=0;exitDy=0;fontSize=12;" edge="1" parent="WIyWlLk6GJQsqaUBKTNV-1" source="flgQ8N4auqFFRh5ke0pL-35" target="flgQ8N4auqFFRh5ke0pL-33">
          <mxGeometry relative="1" as="geometry" />
        </mxCell>
        <mxCell id="flgQ8N4auqFFRh5ke0pL-35" value="重置最后一次震荡时间" style="rounded=0;whiteSpace=wrap;html=1;fontSize=12;" vertex="1" parent="WIyWlLk6GJQsqaUBKTNV-1">
          <mxGeometry x="75" y="1120" width="120" height="60" as="geometry" />
        </mxCell>
        <mxCell id="flgQ8N4auqFFRh5ke0pL-45" style="edgeStyle=orthogonalEdgeStyle;rounded=0;orthogonalLoop=1;jettySize=auto;html=1;exitX=0.5;exitY=1;exitDx=0;exitDy=0;fontSize=12;" edge="1" parent="WIyWlLk6GJQsqaUBKTNV-1" source="flgQ8N4auqFFRh5ke0pL-36" target="flgQ8N4auqFFRh5ke0pL-44">
          <mxGeometry relative="1" as="geometry" />
        </mxCell>
        <mxCell id="flgQ8N4auqFFRh5ke0pL-36" value="链路状态设置为RECOVER_AFTER_3_HOURS，恢复初始Metric" style="rounded=0;whiteSpace=wrap;html=1;fontSize=12;" vertex="1" parent="WIyWlLk6GJQsqaUBKTNV-1">
          <mxGeometry x="355" y="1120" width="198" height="60" as="geometry" />
        </mxCell>
        <mxCell id="flgQ8N4auqFFRh5ke0pL-41" value="是" style="text;strokeColor=none;align=center;fillColor=none;html=1;verticalAlign=middle;whiteSpace=wrap;rounded=0;fontSize=12;" vertex="1" parent="WIyWlLk6GJQsqaUBKTNV-1">
          <mxGeometry x="165" y="1020" width="60" height="30" as="geometry" />
        </mxCell>
        <mxCell id="flgQ8N4auqFFRh5ke0pL-42" value="否" style="text;strokeColor=none;align=center;fillColor=none;html=1;verticalAlign=middle;whiteSpace=wrap;rounded=0;fontSize=12;" vertex="1" parent="WIyWlLk6GJQsqaUBKTNV-1">
          <mxGeometry x="355" y="1020" width="60" height="30" as="geometry" />
        </mxCell>
        <mxCell id="flgQ8N4auqFFRh5ke0pL-47" style="edgeStyle=orthogonalEdgeStyle;rounded=0;orthogonalLoop=1;jettySize=auto;html=1;exitX=0;exitY=0.5;exitDx=0;exitDy=0;entryX=0.5;entryY=0;entryDx=0;entryDy=0;fontSize=12;" edge="1" parent="WIyWlLk6GJQsqaUBKTNV-1" source="flgQ8N4auqFFRh5ke0pL-44" target="flgQ8N4auqFFRh5ke0pL-46">
          <mxGeometry relative="1" as="geometry" />
        </mxCell>
        <mxCell id="flgQ8N4auqFFRh5ke0pL-50" style="edgeStyle=orthogonalEdgeStyle;rounded=0;orthogonalLoop=1;jettySize=auto;html=1;entryX=0.5;entryY=0;entryDx=0;entryDy=0;fontSize=12;" edge="1" parent="WIyWlLk6GJQsqaUBKTNV-1" source="flgQ8N4auqFFRh5ke0pL-44" target="flgQ8N4auqFFRh5ke0pL-49">
          <mxGeometry relative="1" as="geometry" />
        </mxCell>
        <mxCell id="flgQ8N4auqFFRh5ke0pL-44" value="24小时内是否中断" style="rhombus;whiteSpace=wrap;html=1;fontSize=12;" vertex="1" parent="WIyWlLk6GJQsqaUBKTNV-1">
          <mxGeometry x="245" y="1230" width="80" height="80" as="geometry" />
        </mxCell>
        <mxCell id="flgQ8N4auqFFRh5ke0pL-53" style="edgeStyle=orthogonalEdgeStyle;rounded=0;orthogonalLoop=1;jettySize=auto;html=1;fontSize=12;" edge="1" parent="WIyWlLk6GJQsqaUBKTNV-1" source="flgQ8N4auqFFRh5ke0pL-46" target="flgQ8N4auqFFRh5ke0pL-44">
          <mxGeometry relative="1" as="geometry" />
        </mxCell>
        <mxCell id="flgQ8N4auqFFRh5ke0pL-46" value="重置最后一次震荡时间，将Metric设置为+50000，链路状态设置为FLAPPING_IN_24_HOURS" style="rounded=0;whiteSpace=wrap;html=1;fontSize=12;" vertex="1" parent="WIyWlLk6GJQsqaUBKTNV-1">
          <mxGeometry x="67" y="1330" width="158" height="70" as="geometry" />
        </mxCell>
        <mxCell id="flgQ8N4auqFFRh5ke0pL-48" value="是" style="text;strokeColor=none;align=center;fillColor=none;html=1;verticalAlign=middle;whiteSpace=wrap;rounded=0;fontSize=12;" vertex="1" parent="WIyWlLk6GJQsqaUBKTNV-1">
          <mxGeometry x="165" y="1226" width="60" height="30" as="geometry" />
        </mxCell>
        <mxCell id="flgQ8N4auqFFRh5ke0pL-54" style="edgeStyle=orthogonalEdgeStyle;rounded=0;orthogonalLoop=1;jettySize=auto;html=1;entryX=1;entryY=0.5;entryDx=0;entryDy=0;fontSize=12;" edge="1" parent="WIyWlLk6GJQsqaUBKTNV-1" source="flgQ8N4auqFFRh5ke0pL-49" target="flgQ8N4auqFFRh5ke0pL-3">
          <mxGeometry relative="1" as="geometry">
            <mxPoint x="560" y="390" as="targetPoint" />
            <Array as="points">
              <mxPoint x="570" y="1360" />
              <mxPoint x="570" y="170" />
            </Array>
          </mxGeometry>
        </mxCell>
        <mxCell id="flgQ8N4auqFFRh5ke0pL-49" value="清除链路Flapping记录，恢复初始Metric，重新开始监测" style="rounded=0;whiteSpace=wrap;html=1;fontSize=12;" vertex="1" parent="WIyWlLk6GJQsqaUBKTNV-1">
          <mxGeometry x="394" y="1330" width="120" height="60" as="geometry" />
        </mxCell>
        <mxCell id="flgQ8N4auqFFRh5ke0pL-52" value="否" style="text;strokeColor=none;align=center;fillColor=none;html=1;verticalAlign=middle;whiteSpace=wrap;rounded=0;fontSize=12;" vertex="1" parent="WIyWlLk6GJQsqaUBKTNV-1">
          <mxGeometry x="365" y="1226" width="60" height="30" as="geometry" />
        </mxCell>
      </root>
    </mxGraphModel>
  </diagram>
</mxfile>
